<?xml version="1.0" encoding="UTF-8" standalone="no"?>
<svg width="77px" height="52px" viewBox="0 0 77 52" version="1.1" xmlns="http://www.w3.org/2000/svg" xmlns:xlink="http://www.w3.org/1999/xlink">
    <!-- Generator: Sketch 3.6.1 (26313) - http://www.bohemiancoding.com/sketch -->
    <title>Group 8</title>
    <desc>Created with Sketch.</desc>
    <defs>
        <linearGradient x1="51.359365%" y1="-2.71873009%" x2="51.3593674%" y2="107.048219%" id="linearGradient-1">
            <stop stop-color="#129AF6" offset="0%"></stop>
            <stop stop-color="#1299F5" offset="0%"></stop>
            <stop stop-color="#1173F0" offset="100%"></stop>
        </linearGradient>
        <linearGradient x1="50%" y1="-40.3618803%" x2="50%" y2="153.634856%" id="linearGradient-2">
            <stop stop-color="#1299F5" offset="0%"></stop>
            <stop stop-color="#1173F0" offset="100%"></stop>
        </linearGradient>
    </defs>
    <g id="v2" stroke="none" stroke-width="1" fill="none" fill-rule="evenodd">
        <g id="Desktop-Copy" transform="translate(-661.000000, -3476.000000)">
            <g id="Footer" transform="translate(-6.000000, 3476.000000)">
                <g id="Group" transform="translate(667.000000, 0.000000)">
                    <g id="Group-8">
                        <path d="M76.3816625,36.894593 C74.9874125,29.6875754 74.9874125,22.3792947 76.3743292,15.2083123 C77.3776208,10.3709439 76.5805792,6.24287368 74.1298708,3.58448772 C72.5458708,1.86666316 69.5309542,-0.0509508772 64.1922875,0.578978947 C47.0781208,2.42269825 29.7224125,2.42269825 12.6339125,0.58217193 C7.26774583,-0.0504947368 4.25374583,1.86620702 2.66974583,3.58448772 C0.2190375,6.24287368 -0.578004167,10.3709439 0.4184125,15.1722772 C1.81220417,22.3792947 1.81220417,29.6875754 0.4252875,36.8585579 C-0.578004167,41.6959263 0.2190375,45.8239965 2.66974583,48.4823825 C4.04337083,49.9721368 6.4917875,51.6101368 10.5979958,51.6101368 C11.2282042,51.6101368 11.8973708,51.5713649 12.6073292,51.4878912 C29.7178292,49.6450842 47.0684958,49.6441719 64.1789958,51.4865228 C69.5350792,52.1132596 72.5467875,50.1988386 74.1298708,48.4823825 C76.5805792,45.8239965 77.3776208,41.6959263 76.3816625,36.894593 Z M70.0772875,44.7817158 C68.7802042,46.1884526 66.4972458,46.2477509 64.8110375,46.0488737 L64.7839958,46.0456807 C56.0334958,45.1032947 47.2224958,44.6316456 38.4069125,44.6316456 C29.5853708,44.6316456 20.7587875,45.104207 11.9885792,46.0488737 C10.3019125,46.2463825 8.0194125,46.1884526 6.72232917,44.7817158 C5.49857917,43.4543474 5.17545417,41.0336105 5.81895417,37.9295754 C7.3456625,30.0356105 7.3456625,22.0312596 5.81162083,14.1012596 C5.17545417,11.0332596 5.49857917,8.61252281 6.72232917,7.28515439 C8.01987083,5.8779614 10.3023708,5.81957544 12.0156208,6.02073333 C29.5230375,7.90687368 47.2770375,7.90687368 64.8110375,6.01799649 C66.4981625,5.82003158 68.7802042,5.87841754 70.0772875,7.28515439 C71.3005792,8.61252281 71.6241625,11.0332596 70.9806625,14.1372947 C69.4539542,22.0312596 69.4539542,30.0356105 70.9879958,37.9656105 C71.6241625,41.0336105 71.3010375,43.4543474 70.0772875,44.7817158 Z" id="Logo" fill="url(#linearGradient-1)"></path>
                        <path d="M38.3995792,12.7173754 C31.0217875,12.7173754 25.0194542,18.6909895 25.0194542,26.0334807 C25.0194542,33.3759719 31.0217875,39.349586 38.3995792,39.349586 C45.7778292,39.349586 51.7797042,33.3759719 51.7797042,26.0334807 C51.7797042,18.6909895 45.7778292,12.7173754 38.3995792,12.7173754 Z M42.2303292,33.9589193 C41.5070792,34.3060421 40.6660375,33.7814807 40.6660375,32.9823228 L40.6660375,32.7601825 C40.6660375,32.3492 40.9025375,31.9769895 41.2724125,31.7936211 C43.4009125,30.7390246 44.8694125,28.556393 44.8694125,26.0334807 C44.8694125,25.9486386 44.8671208,25.8647088 44.8629958,25.7812351 C44.8428292,25.3734456 45.0692458,24.9930246 45.4299542,24.7982526 L45.6270375,24.6915158 C46.3379125,24.3069895 47.1940792,24.8023579 47.2362458,25.6065333 C47.2435792,25.7479368 47.2477042,25.8902526 47.2477042,26.0334807 C47.2477042,29.5224982 45.1948292,32.5366737 42.2303292,33.9589193 Z M38.3995792,27.9611298 C37.3316625,27.9611298 36.4626625,27.0962877 36.4626625,26.0334807 C36.4626625,24.9702175 37.3316625,24.1053754 38.3995792,24.1053754 C39.4679542,24.1053754 40.3369542,24.9702175 40.3369542,26.0334807 C40.3369542,27.0962877 39.4679542,27.9611298 38.3995792,27.9611298 Z M36.1335792,32.9823228 C36.1335792,33.7814807 35.2925375,34.3060421 34.5692875,33.9589193 C31.6043292,32.5366737 29.5519125,29.5224982 29.5519125,26.0334807 C29.5519125,25.8902526 29.5555792,25.7479368 29.5633708,25.6065333 C29.6055375,24.8023579 30.4617042,24.3069895 31.1725792,24.6915158 L31.3696625,24.7982526 C31.7303708,24.9930246 31.9567875,25.3734456 31.9366208,25.7812351 C31.9324958,25.8647088 31.9302042,25.9486386 31.9302042,26.0334807 C31.9302042,28.556393 33.3982458,30.7390246 35.5272042,31.7936211 C35.8970792,31.9769895 36.1335792,32.3492 36.1335792,32.7601825 L36.1335792,32.9823228 Z M33.2346208,18.8967088 C34.6879958,17.8484982 36.4709125,17.2281474 38.3995792,17.2281474 C40.3287042,17.2281474 42.1116208,17.8484982 43.5654542,18.8971649 C44.2172042,19.3669895 44.1608292,20.3508842 43.4536208,20.733586 L43.2569958,20.8398667 C42.8939958,21.036007 42.4521625,21.0086386 42.1148292,20.7714456 C41.0629542,20.0320421 39.7828292,19.5950596 38.3995792,19.5950596 C37.0167875,19.5950596 35.7366625,20.0320421 34.6847875,20.7714456 C34.3474542,21.0086386 33.9056208,21.036007 33.5426208,20.8398667 L33.3459958,20.733586 C32.6387875,20.3508842 32.5824125,19.3669895 33.2346208,18.8967088 Z" id="Logo" fill="url(#linearGradient-2)"></path>
                    </g>
                </g>
            </g>
        </g>
    </g>
</svg>