<?xml version="1.0" encoding="UTF-8" standalone="no"?>
<svg width="158px" height="52px" viewBox="0 0 158 52" version="1.1" xmlns="http://www.w3.org/2000/svg" xmlns:xlink="http://www.w3.org/1999/xlink">
    <!-- Generator: Sketch 3.6.1 (26313) - http://www.bohemiancoding.com/sketch -->
    <title>Group 10</title>
    <desc>Created with Sketch.</desc>
    <defs>
        <linearGradient x1="51.359365%" y1="-2.71873009%" x2="51.3593674%" y2="107.048219%" id="linearGradient-1">
            <stop stop-color="#129AF6" offset="0%"></stop>
            <stop stop-color="#1299F5" offset="0%"></stop>
            <stop stop-color="#1173F0" offset="100%"></stop>
        </linearGradient>
        <linearGradient x1="50%" y1="-40.3618803%" x2="50%" y2="153.634856%" id="linearGradient-2">
            <stop stop-color="#1299F5" offset="0%"></stop>
            <stop stop-color="#1173F0" offset="100%"></stop>
        </linearGradient>
    </defs>
    <g id="v2" stroke="none" stroke-width="1" fill="none" fill-rule="evenodd">
        <g id="Desktop-Copy" transform="translate(-268.000000, -62.000000)">
            <g id="Group-10" transform="translate(268.000000, 62.000000)">
                <g id="Group">
                    <path d="M76.3816625,36.894593 C74.9874125,29.6875754 74.9874125,22.3792947 76.3743292,15.2083123 C77.3776208,10.3709439 76.5805792,6.24287368 74.1298708,3.58448772 C72.5458708,1.86666316 69.5309542,-0.0509508772 64.1922875,0.578978947 C47.0781208,2.42269825 29.7224125,2.42269825 12.6339125,0.58217193 C7.26774583,-0.0504947368 4.25374583,1.86620702 2.66974583,3.58448772 C0.2190375,6.24287368 -0.578004167,10.3709439 0.4184125,15.1722772 C1.81220417,22.3792947 1.81220417,29.6875754 0.4252875,36.8585579 C-0.578004167,41.6959263 0.2190375,45.8239965 2.66974583,48.4823825 C4.04337083,49.9721368 6.4917875,51.6101368 10.5979958,51.6101368 C11.2282042,51.6101368 11.8973708,51.5713649 12.6073292,51.4878912 C29.7178292,49.6450842 47.0684958,49.6441719 64.1789958,51.4865228 C69.5350792,52.1132596 72.5467875,50.1988386 74.1298708,48.4823825 C76.5805792,45.8239965 77.3776208,41.6959263 76.3816625,36.894593 Z M70.0772875,44.7817158 C68.7802042,46.1884526 66.4972458,46.2477509 64.8110375,46.0488737 L64.7839958,46.0456807 C56.0334958,45.1032947 47.2224958,44.6316456 38.4069125,44.6316456 C29.5853708,44.6316456 20.7587875,45.104207 11.9885792,46.0488737 C10.3019125,46.2463825 8.0194125,46.1884526 6.72232917,44.7817158 C5.49857917,43.4543474 5.17545417,41.0336105 5.81895417,37.9295754 C7.3456625,30.0356105 7.3456625,22.0312596 5.81162083,14.1012596 C5.17545417,11.0332596 5.49857917,8.61252281 6.72232917,7.28515439 C8.01987083,5.8779614 10.3023708,5.81957544 12.0156208,6.02073333 C29.5230375,7.90687368 47.2770375,7.90687368 64.8110375,6.01799649 C66.4981625,5.82003158 68.7802042,5.87841754 70.0772875,7.28515439 C71.3005792,8.61252281 71.6241625,11.0332596 70.9806625,14.1372947 C69.4539542,22.0312596 69.4539542,30.0356105 70.9879958,37.9656105 C71.6241625,41.0336105 71.3010375,43.4543474 70.0772875,44.7817158 Z" id="Logo" fill="url(#linearGradient-1)"></path>
                    <path d="M38.3995792,12.7173754 C31.0217875,12.7173754 25.0194542,18.6909895 25.0194542,26.0334807 C25.0194542,33.3759719 31.0217875,39.349586 38.3995792,39.349586 C45.7778292,39.349586 51.7797042,33.3759719 51.7797042,26.0334807 C51.7797042,18.6909895 45.7778292,12.7173754 38.3995792,12.7173754 Z M42.2303292,33.9589193 C41.5070792,34.3060421 40.6660375,33.7814807 40.6660375,32.9823228 L40.6660375,32.7601825 C40.6660375,32.3492 40.9025375,31.9769895 41.2724125,31.7936211 C43.4009125,30.7390246 44.8694125,28.556393 44.8694125,26.0334807 C44.8694125,25.9486386 44.8671208,25.8647088 44.8629958,25.7812351 C44.8428292,25.3734456 45.0692458,24.9930246 45.4299542,24.7982526 L45.6270375,24.6915158 C46.3379125,24.3069895 47.1940792,24.8023579 47.2362458,25.6065333 C47.2435792,25.7479368 47.2477042,25.8902526 47.2477042,26.0334807 C47.2477042,29.5224982 45.1948292,32.5366737 42.2303292,33.9589193 Z M38.3995792,27.9611298 C37.3316625,27.9611298 36.4626625,27.0962877 36.4626625,26.0334807 C36.4626625,24.9702175 37.3316625,24.1053754 38.3995792,24.1053754 C39.4679542,24.1053754 40.3369542,24.9702175 40.3369542,26.0334807 C40.3369542,27.0962877 39.4679542,27.9611298 38.3995792,27.9611298 Z M36.1335792,32.9823228 C36.1335792,33.7814807 35.2925375,34.3060421 34.5692875,33.9589193 C31.6043292,32.5366737 29.5519125,29.5224982 29.5519125,26.0334807 C29.5519125,25.8902526 29.5555792,25.7479368 29.5633708,25.6065333 C29.6055375,24.8023579 30.4617042,24.3069895 31.1725792,24.6915158 L31.3696625,24.7982526 C31.7303708,24.9930246 31.9567875,25.3734456 31.9366208,25.7812351 C31.9324958,25.8647088 31.9302042,25.9486386 31.9302042,26.0334807 C31.9302042,28.556393 33.3982458,30.7390246 35.5272042,31.7936211 C35.8970792,31.9769895 36.1335792,32.3492 36.1335792,32.7601825 L36.1335792,32.9823228 Z M33.2346208,18.8967088 C34.6879958,17.8484982 36.4709125,17.2281474 38.3995792,17.2281474 C40.3287042,17.2281474 42.1116208,17.8484982 43.5654542,18.8971649 C44.2172042,19.3669895 44.1608292,20.3508842 43.4536208,20.733586 L43.2569958,20.8398667 C42.8939958,21.036007 42.4521625,21.0086386 42.1148292,20.7714456 C41.0629542,20.0320421 39.7828292,19.5950596 38.3995792,19.5950596 C37.0167875,19.5950596 35.7366625,20.0320421 34.6847875,20.7714456 C34.3474542,21.0086386 33.9056208,21.036007 33.5426208,20.8398667 L33.3459958,20.733586 C32.6387875,20.3508842 32.5824125,19.3669895 33.2346208,18.8967088 Z" id="Logo" fill="url(#linearGradient-2)"></path>
                </g>
                <g id="Page-1" transform="translate(84.000000, 7.000000)" fill="#221F20">
                    <g id="Group-3" transform="translate(0.000000, 0.054676)">
                        <path d="M2.72049366,17.5455648 C3.22311558,17.7462935 3.75626883,17.9032065 4.30468775,18.0114352 C4.8534883,18.1200385 5.4183178,18.1750891 5.98391059,18.1750891 C6.970454,18.1750891 7.86273196,18.024168 8.63555611,17.7264453 C9.41105174,17.4283482 10.0793061,17.0111619 10.6220004,16.4876194 C11.165458,15.9625789 11.5837371,15.3382976 11.8650069,14.632751 C12.1447502,13.9331964 12.2867209,13.1725992 12.2867209,12.3723057 C12.2867209,11.6278117 12.1623057,10.9803117 11.9165285,10.4470324 C11.6726596,9.91787247 11.3433029,9.46286235 10.9379996,9.09398583 C10.541474,8.73409717 10.0846491,8.43262955 9.58050059,8.19744737 C9.09963224,7.97312551 8.60006344,7.77314575 8.09553331,7.60275101 C7.60588719,7.4372247 7.11662272,7.27881377 6.64186063,7.13126316 C6.19266852,6.99157692 5.78774683,6.83204251 5.43854481,6.65677935 C5.11643933,6.49537247 4.85654144,6.30101012 4.66648394,6.07856073 C4.50008822,5.88419838 4.41956186,5.64115182 4.41956186,5.33519028 C4.41956186,5.07828745 4.4649772,4.84048381 4.55504461,4.62889474 C4.64205888,4.42442105 4.77143537,4.25327733 4.95004362,4.10535223 C5.13590305,3.95218421 5.37061261,3.8297247 5.64806602,3.74134413 C5.93429718,3.64959312 6.28120936,3.60315587 6.68002478,3.60315587 C7.12272898,3.60315587 7.50780531,3.657083 7.82494944,3.76269028 C8.15926745,3.87466397 8.45351308,3.99974494 8.69929025,4.13456275 C8.9588065,4.27687045 9.18817308,4.40831781 9.38052042,4.52515992 C9.6411816,4.68357085 9.88047086,4.7607166 10.1121273,4.7607166 C10.3407306,4.7607166 10.5452904,4.70678947 10.7204639,4.6000587 C10.8944925,4.49407692 11.042951,4.3229332 11.1612599,4.09112146 L11.9371372,2.62610121 C12.0153737,2.47780162 11.9844607,2.29654656 11.8608089,2.18157692 C11.2280472,1.59362146 10.4544598,1.13074696 9.56065523,0.806060729 C8.67257534,0.483246964 7.6913749,0.319593117 6.64453212,0.319593117 C5.71141852,0.319593117 4.86646412,0.464896761 4.13256741,0.751384615 C3.39790741,1.03824696 2.76743557,1.42622267 2.25832573,1.9052004 C1.74654441,2.38605061 1.35192704,2.94629352 1.0851596,3.5702004 C0.818773791,4.19148583 0.684054322,4.84010931 0.684054322,5.49734615 C0.684054322,6.30737652 0.806942902,7.0050587 1.05004857,7.57017004 C1.29353588,8.13640486 1.6225109,8.61613158 2.02819588,8.9969919 C2.4270113,9.37148583 2.88612609,9.67894534 3.39256443,9.91075709 C3.87724921,10.132832 4.37643636,10.3253219 4.8763868,10.4833583 C5.3641247,10.6380243 5.85300753,10.7833279 6.32815127,10.9155243 C6.77314532,11.0394818 7.17348731,11.1915263 7.51810964,11.3675385 C7.83792526,11.5315668 8.09629659,11.733419 8.2855908,11.9682267 C8.45618458,12.1794413 8.53938243,12.4558178 8.53938243,12.812336 C8.53938243,13.491668 8.33940226,13.9912429 7.92799266,14.3398968 C7.50666039,14.6982874 6.88420301,14.879917 6.07817605,14.879917 C5.53777161,14.879917 5.07407712,14.8083887 4.69930511,14.6672045 C4.30316118,14.5185304 3.95701229,14.3526296 3.67001784,14.173996 C3.36394132,13.9841275 3.09793715,13.8103623 2.8788749,13.6579433 C2.58462926,13.4549676 2.29648989,13.3519818 2.02094469,13.3519818 C1.80150079,13.3519818 1.5977042,13.4074069 1.4148979,13.5167591 C1.25384516,13.613753 1.11530928,13.7350891 1.00119845,13.8773968 C0.991657415,13.8893806 0.982879659,13.9017389 0.974865186,13.9148462 L0.0551090404,15.4079534 C-0.0349583664,15.5540061 -0.0128231562,15.741253 0.108538858,15.8633381 C0.45774088,16.2138644 0.858082871,16.5351802 1.29926051,16.8179231 C1.73738501,17.0995425 2.21596352,17.3444615 2.72049366,17.5455648" id="Fill-1"></path>
                    </g>
                    <path d="M26.6057212,17.6700091 L26.6057212,15.1006063 C26.6057212,14.8938856 26.4347457,14.7261123 26.2240796,14.7261123 L19.7762455,14.7261123 L19.7762455,0.933875506 C19.7762455,0.727154858 19.6056518,0.559381579 19.394604,0.559381579 L16.2220177,0.559381579 C16.0113516,0.559381579 15.8403762,0.727154858 15.8403762,0.933875506 L15.8403762,17.6700091 C15.8403762,17.8767298 16.0113516,18.044503 16.2220177,18.044503 L26.2240796,18.044503 C26.4347457,18.044503 26.6057212,17.8767298 26.6057212,17.6700091" id="Fill-4"></path>
                    <path d="M30.3051254,18.044503 L41.0624559,18.044503 C41.273122,18.044503 41.4440974,17.8767298 41.4440974,17.6700091 L41.4440974,15.181497 C41.4440974,14.9747763 41.273122,14.807003 41.0624559,14.807003 L33.8833966,14.807003 L33.8833966,10.8223877 L39.4580348,10.8223877 C39.6690826,10.8223877 39.8396763,10.6546144 39.8396763,10.4478937 L39.8396763,8.05188158 C39.8396763,7.84516093 39.6690826,7.67738765 39.4580348,7.67738765 L33.8833966,7.67738765 L33.8833966,3.78527227 L41.0624559,3.78527227 C41.273122,3.78527227 41.4440974,3.61787348 41.4440974,3.41077834 L41.4440974,0.933875506 C41.4440974,0.727154858 41.273122,0.559381579 41.0624559,0.559381579 L30.3051254,0.559381579 C30.0944593,0.559381579 29.9234838,0.727154858 29.9234838,0.933875506 L29.9234838,17.6700091 C29.9234838,17.8767298 30.0944593,18.044503 30.3051254,18.044503" id="Fill-6"></path>
                    <path d="M56.4542506,0.559419028 L45.6969201,0.559419028 C45.486254,0.559419028 45.3152785,0.727192308 45.3152785,0.933912955 L45.3152785,17.6700466 C45.3152785,17.8767672 45.486254,18.0445405 45.6969201,18.0445405 L56.4542506,18.0445405 C56.6649167,18.0445405 56.8358921,17.8767672 56.8358921,17.6700466 L56.8358921,15.1815344 C56.8358921,14.9748138 56.6649167,14.8070405 56.4542506,14.8070405 L49.2751913,14.8070405 L49.2751913,10.8224251 L54.8502111,10.8224251 C55.0608773,10.8224251 55.2318527,10.6546518 55.2318527,10.4479312 L55.2318527,8.05191903 C55.2318527,7.84519838 55.0608773,7.6774251 54.8502111,7.6774251 L49.2751913,7.6774251 L49.2751913,3.78530972 L56.4542506,3.78530972 C56.6649167,3.78530972 56.8358921,3.61791093 56.8358921,3.41081579 L56.8358921,0.933912955 C56.8358921,0.727192308 56.6649167,0.559419028 56.4542506,0.559419028" id="Fill-8"></path>
                    <g id="Group-12" transform="translate(60.681007, 0.429170)">
                        <path d="M8.94350268,6.99142713 C8.8225223,7.31723684 8.64009764,7.59623482 8.40119003,7.82130567 C8.15999257,8.04787449 7.84666485,8.22575911 7.47036628,8.35009109 C7.07880204,8.4792915 6.60785636,8.54482794 6.07012341,8.54482794 L4.06955839,8.54482794 L4.06955839,3.2865587 L6.07012341,3.2865587 C6.60938293,3.2865587 7.08261846,3.34909919 7.47647254,3.4715587 C7.8535344,3.58952429 8.16686211,3.75879555 8.40729629,3.97525304 C8.64505898,4.18908907 8.82595708,4.45273279 8.94579253,4.75906883 C9.06982603,5.07663968 9.13241525,5.44027328 9.13241525,5.84023279 C9.13241525,6.26565789 9.06906275,6.65288462 8.94350268,6.99142713 M12.6538219,3.5520749 C12.3733153,2.84315789 11.9336643,2.2259919 11.3474628,1.71705466 C10.7673677,1.21410931 10.026983,0.818643725 9.14729927,0.541518219 C8.27944637,0.268512146 7.24405284,0.130323887 6.07012341,0.130323887 L0.514567308,0.130323887 C0.30390117,0.130323887 0.132925753,0.297722672 0.132925753,0.504817814 L0.132925753,17.2409514 C0.132925753,17.4476721 0.30390117,17.6154453 0.514567308,17.6154453 L3.68791683,17.6154453 C3.89858297,17.6154453 4.06955839,17.4476721 4.06955839,17.2409514 L4.06955839,11.7242814 L6.07012341,11.7242814 C7.21466644,11.7242814 8.23174118,11.5815992 9.09272452,11.2999798 C9.96439383,11.0146154 10.7040152,10.607166 11.2913615,10.0888664 C11.8829059,9.56569838 12.3328613,8.93280364 12.6286335,8.2077834 C12.920971,7.49062753 13.0690479,6.69407895 13.0690479,5.84023279 C13.0690479,5.01896761 12.9293671,4.2490081 12.6538219,3.5520749" id="Fill-10"></path>
                    </g>
                    <path d="M10.6646679,33.9433431 C10.5768904,34.197999 10.4379728,34.4152055 10.2395192,34.6065719 C10.040684,34.7983128 9.7662837,34.9563492 9.42356959,35.0761872 C9.06978787,35.2001447 8.61487113,35.2626852 8.0717952,35.2626852 L5.23352696,35.2626852 L5.23352696,31.1043047 L8.05996431,31.1043047 C8.58052339,31.1043047 9.02589909,31.1541123 9.38426051,31.2526043 C9.72392149,31.3462277 10.0017565,31.4795476 10.2108961,31.6491933 C10.4143111,31.8143451 10.5593349,32.007584 10.6543636,32.2405192 C10.7535904,32.4839403 10.8035854,32.7663087 10.8035854,33.0793856 C10.8035854,33.3845982 10.7570252,33.6752055 10.6646679,33.9433431 L10.6646679,33.9433431 Z M5.23352696,24.1136265 L7.56421193,24.1136265 C8.54426745,24.1136265 9.26099029,24.2754079 9.69453509,24.5944767 C10.0998384,24.8925739 10.2967655,25.4041326 10.2967655,26.1579889 C10.2967655,26.8762682 10.075795,27.3780901 9.62087827,27.6922905 C9.13123216,28.030833 8.37977994,28.2027257 7.3875119,28.2027257 L5.23352696,28.2027257 L5.23352696,24.1136265 Z M11.9259933,29.3557925 C12.0889542,29.2700334 12.2419925,29.1790314 12.385108,29.0835354 C12.7972809,28.8082824 13.1441931,28.4952055 13.4151586,28.1532925 C13.6891772,27.8080091 13.8945004,27.4301447 14.0254034,27.0309342 C14.1551616,26.6373411 14.2208039,26.2190314 14.2208039,25.7876144 C14.2208039,25.0547298 14.0918091,24.3825132 13.8372542,23.7904383 C13.5762113,23.1848816 13.161367,22.6632115 12.6049336,22.2396589 C12.0591862,21.8247196 11.3592556,21.5030294 10.5238422,21.2824524 C9.70483941,21.0667439 8.7091366,20.9573917 7.56421193,20.9573917 L1.67853588,20.9573917 C1.46786975,20.9573917 1.29689433,21.1247905 1.29689433,21.3318856 L1.29689433,38.0676447 C1.29689433,38.2747399 1.46786975,38.4421387 1.67853588,38.4421387 L8.11873711,38.4421387 C9.14573454,38.4421387 10.0746501,38.3114403 10.8795321,38.053414 C11.6928103,37.7927662 12.3908327,37.4246387 12.9529907,36.9595172 C13.521255,36.4895273 13.9605244,35.9210455 14.2582048,35.2698006 C14.5543586,34.6230496 14.7043438,33.9092642 14.7043438,33.1490415 C14.7043438,31.3087783 13.7708485,30.036248 11.9259933,29.3557925 L11.9259933,29.3557925 Z" id="Fill-13"></path>
                    <g id="Group-17" transform="translate(18.318795, 20.651842)">
                        <path d="M14.5575644,0.305362348 L11.3845966,0.305362348 C11.1735488,0.305362348 11.002955,0.473135628 11.002955,0.679856275 L11.002955,10.7031862 C11.002955,11.300504 10.9201388,11.8442692 10.7571778,12.3198765 C10.5984149,12.7853725 10.3667585,13.184583 10.0694598,13.5073968 C9.77406919,13.8279636 9.40654837,14.080747 8.97758327,14.2582571 C8.54327518,14.4387632 8.03988997,14.5297652 7.48040345,14.5297652 C6.92129857,14.5297652 6.41753172,14.4387632 5.98360527,14.2586316 C5.55502181,14.0811215 5.19055412,13.8275891 4.9001249,13.5047753 C4.60549762,13.1778421 4.37498612,12.7752611 4.21545995,12.3086417 C4.05211737,11.8330344 3.96968279,11.2888947 3.96968279,10.6915769 L3.96968279,0.679856275 C3.96968279,0.473135628 3.79870738,0.305362348 3.58804124,0.305362348 L0.415073354,0.305362348 C0.204407216,0.305362348 0.0334318002,0.473135628 0.0334318002,0.679856275 L0.0334318002,10.7031862 C0.0334318002,11.7390364 0.206697066,12.7127206 0.547884615,13.5961518 C0.890598731,14.4852004 1.39131245,15.2645223 2.03514175,15.9123968 C2.67897105,16.5606457 3.47087728,17.0725789 4.38987014,17.4335911 C5.30428331,17.7934798 6.34425654,17.9758583 7.48040345,17.9758583 C8.616932,17.9758583 9.65652359,17.7934798 10.5709368,17.4335911 C11.4884031,17.0729534 12.2825991,16.5613947 12.9306265,15.9135202 C13.5778906,15.2660202 14.0805125,14.4863239 14.4247532,13.5961518 C14.7659407,12.7127206 14.939206,11.7390364 14.939206,10.7031862 L14.939206,0.679856275 C14.939206,0.473135628 14.7682306,0.305362348 14.5575644,0.305362348" id="Fill-15"></path>
                    </g>
                    <g id="Group-20" transform="translate(36.255948, 20.651842)">
                        <path d="M10.9982608,8.89468016 C10.6017352,8.5347915 10.1452919,8.23332389 9.6407618,7.99776721 C9.15989344,7.77381984 8.66032464,7.57384008 8.15579451,7.40344534 C7.66614839,7.23791903 7.17726556,7.0791336 6.70212183,6.931583 C6.25292972,6.79227126 5.84800803,6.63273684 5.49880601,6.45747368 C5.17670054,6.2960668 4.91718428,6.10170445 4.72674514,5.87888057 C4.56073107,5.68489271 4.47982306,5.44184615 4.47982306,5.13588462 C4.47982306,4.87898178 4.52562004,4.64117814 4.61568745,4.42958907 C4.70232008,4.22511538 4.83169657,4.05397166 5.01068646,3.90604656 C5.19616425,3.75287854 5.43125545,3.63041903 5.70832722,3.54203846 C5.99455839,3.45028745 6.3418522,3.4038502 6.74028598,3.4038502 C7.18299019,3.4038502 7.56844816,3.45740283 7.88521065,3.56338462 C8.21952865,3.6753583 8.51415593,3.80043927 8.75993309,3.93525709 C9.01944935,4.07756478 9.24843428,4.20901215 9.44078162,4.32585425 C9.7014428,4.48426518 9.94073206,4.56141093 10.1723885,4.56141093 C10.4009918,4.56141093 10.6059333,4.50748381 10.7807251,4.40075304 C10.9551353,4.29439676 11.1035939,4.12287854 11.2215211,3.8910668 L11.9973984,2.42679555 C12.0760166,2.27849595 12.0447219,2.09724089 11.9210701,1.98227126 C11.28869,1.39431579 10.514721,0.931441296 9.62091644,0.606755061 C8.73321818,0.283941296 7.75201774,0.120287449 6.70479332,0.120287449 C5.77206136,0.120287449 4.92672532,0.265591093 4.19321025,0.551704453 C3.45855026,0.838566802 2.82769677,1.226917 2.31858693,1.70589474 C1.80718725,2.18674494 1.41256989,2.74661336 1.1454208,3.37089474 C0.879416634,3.99218016 0.744315523,4.64080364 0.744315523,5.29804049 C0.744315523,6.10807085 0.867585745,6.80537854 1.11030977,7.37048988 C1.35417873,7.9367247 1.68315375,8.41682591 2.08883872,8.79768623 C2.4872725,9.17218016 2.94638729,9.47963968 3.45320728,9.71145142 C3.93789205,9.93352632 4.4370792,10.1260162 4.936648,10.2840526 C5.42476755,10.4387186 5.91326874,10.5840223 6.38841247,10.7162186 C6.83340652,10.8398016 7.23374851,10.9922206 7.57837084,11.1682328 C7.8985681,11.3322611 8.15655779,11.5341134 8.345852,11.7685466 C8.51682742,11.9801356 8.59964364,12.2561377 8.59964364,12.6126559 C8.59964364,13.2923623 8.39966346,13.7919372 7.98863551,14.1405911 C7.56692159,14.4989818 6.94446421,14.6802368 6.13881889,14.6802368 C5.59841445,14.6802368 5.13433832,14.609083 4.75956632,14.4678988 C4.36380402,14.3192247 4.01765513,14.1533239 3.73027904,13.9746903 C3.42458416,13.7848219 3.15819835,13.6110567 2.9391361,13.4586377 C2.64527211,13.2552874 2.35675109,13.1526761 2.08120589,13.1526761 C1.86176199,13.1526761 1.6579654,13.2081012 1.47554074,13.3174534 C1.31448801,13.4144474 1.17557048,13.5354089 1.0618413,13.6777166 C1.05191862,13.6897004 1.04314086,13.7024332 1.03512639,13.7155405 L0.115370242,15.2082733 C0.0253028351,15.3543259 0.0474380452,15.5415729 0.169181701,15.6640324 C0.518002082,16.0145587 0.918725714,16.3355 1.35952171,16.6182429 C1.79802785,16.9002368 2.27622472,17.1451559 2.78075486,17.3462591 C3.28337678,17.5469879 3.81653004,17.7035263 4.36494895,17.8121296 C4.9137495,17.9207328 5.47896065,17.9757834 6.04455343,17.9757834 C7.03071521,17.9757834 7.92299316,17.8248623 8.69619895,17.5271397 C9.47169459,17.228668 10.1399489,16.8118563 10.6822616,16.2883138 C11.2257192,15.7632733 11.6439983,15.1393664 11.9256498,14.4334453 C12.205393,13.7323927 12.3469821,12.9717955 12.3469821,12.173 C12.3469821,11.4285061 12.2225669,10.7810061 11.9771714,10.2477267 C11.7333024,9.7185668 11.4039458,9.26318219 10.9982608,8.89468016" id="Fill-18"></path>
                    </g>
                </g>
            </g>
        </g>
    </g>
</svg>