<?xml version="1.0" encoding="UTF-8" standalone="no"?>
<svg width="19px" height="32px" viewBox="0 0 19 32" version="1.1" xmlns="http://www.w3.org/2000/svg" xmlns:xlink="http://www.w3.org/1999/xlink">
    <!-- Generator: Sketch 3.6.1 (26313) - http://www.bohemiancoding.com/sketch -->
    <title>Combined Shape</title>
    <desc>Created with Sketch.</desc>
    <defs>
        <linearGradient x1="0%" y1="-9.14906647%" x2="0%" y2="100%" id="linearGradient-1">
            <stop stop-color="#1299F5" offset="0%"></stop>
            <stop stop-color="#1173F0" offset="100%"></stop>
        </linearGradient>
    </defs>
    <g id="v2" stroke="none" stroke-width="1" fill="none" fill-rule="evenodd">
        <g id="Desktop-Copy" transform="translate(-268.000000, -569.000000)" fill="url(#linearGradient-1)">
            <g id="Group-2" transform="translate(268.000000, 569.000000)">
                <path d="M9.86666667,31.4666667 L9.06666667,31.4666667 C4.13333333,31.4666667 0,27.4666667 0,22.4 L0,9.06666667 C0,4.13333333 4.13333333,0 9.06666667,0 L9.86666667,0 C14.9333333,0 18.9333333,4.13333333 18.9333333,9.06666667 L18.9333333,22.4 C18.9333333,27.3333333 14.8,31.4666667 9.86666667,31.4666667 Z M9.06666667,2.13333333 C5.2,2.13333333 2.13333333,5.2 2.13333333,9.06666667 L2.13333333,22.4 C2.13333333,26.2666667 5.2,29.3333333 9.06666667,29.3333333 L9.86666667,29.3333333 C13.7333333,29.3333333 16.8,26.2666667 16.8,22.4 L16.8,9.06666667 C16.8,5.2 13.7333333,2.13333333 9.86666667,2.13333333 L9.06666667,2.13333333 L9.06666667,2.13333333 Z M9.46666667,10.6666667 C10.5712362,10.6666667 11.4666667,9.77123617 11.4666667,8.66666667 C11.4666667,7.56209717 10.5712362,6.66666667 9.46666667,6.66666667 C8.36209717,6.66666667 7.46666667,7.56209717 7.46666667,8.66666667 C7.46666667,9.77123617 8.36209717,10.6666667 9.46666667,10.6666667 Z" id="Combined-Shape"></path>
            </g>
        </g>
    </g>
</svg>