<?xml version="1.0" encoding="UTF-8" standalone="no"?>
<svg width="27px" height="44px" viewBox="0 0 27 44" version="1.1" xmlns="http://www.w3.org/2000/svg" xmlns:xlink="http://www.w3.org/1999/xlink">
    <!-- Generator: Sketch 3.6.1 (26313) - http://www.bohemiancoding.com/sketch -->
    <title>OUTLET</title>
    <desc>Created with Sketch.</desc>
    <defs>
        <linearGradient x1="50%" y1="0%" x2="50%" y2="100%" id="linearGradient-1">
            <stop stop-color="#248DF8" offset="0%"></stop>
            <stop stop-color="#1080F2" offset="100%"></stop>
        </linearGradient>
    </defs>
    <g id="v2" stroke="none" stroke-width="1" fill="none" fill-rule="evenodd">
        <g id="Desktop-Copy" transform="translate(-687.000000, -2086.000000)" fill="url(#linearGradient-1)">
            <g id="Group-13" transform="translate(606.000000, 2086.000000)">
                <g id="Page-1" transform="translate(81.000000, 0.000000)">
                    <g id="Group-3" transform="translate(0.000000, 0.354493)">
                        <path d="M20.35692,15.5905363 C20.35692,17.5516326 18.76032,19.1398696 16.79292,19.1398696 L9.62172,19.1398696 C7.65252,19.1398696 6.05772,17.5516326 6.05772,15.5905363 L6.05772,9.67677333 C6.05772,7.71567704 7.65252,6.12744 9.62172,6.12744 L16.79292,6.12744 C18.76032,6.12744 20.35692,7.71567704 20.35692,9.67677333 L20.35692,15.5905363 Z M20.35692,33.9359289 C20.35692,35.8970252 18.76032,37.4870548 16.79292,37.4870548 L9.62172,37.4870548 C7.65252,37.4870548 6.05772,35.8970252 6.05772,33.9359289 L6.05772,28.0239585 C6.05772,26.0628622 7.65252,24.4728326 9.62172,24.4728326 L16.79292,24.4728326 C18.76032,24.4728326 20.35692,26.0628622 20.35692,28.0239585 L20.35692,33.9359289 Z M23.31972,0.622388148 L3.09672,0.622388148 C1.38672,0.622388148 0.00072,2.00447704 0.00072,3.70744 L0.00072,39.9375289 C0.00072,41.6404919 1.38672,43.0225807 3.09672,43.0225807 L23.31972,43.0225807 C25.02972,43.0225807 26.41572,41.6404919 26.41572,39.9375289 L26.41572,3.70744 C26.41572,2.00447704 25.02972,0.622388148 23.31972,0.622388148 L23.31972,0.622388148 Z M10.07856,32.0762933 L9.33336,32.0762933 C9.02736,32.0762933 8.77896,31.8289156 8.77896,31.5241748 L8.77896,27.9873896 C8.77896,27.6826489 9.02736,27.4352711 9.33336,27.4352711 L10.07856,27.4352711 C10.38456,27.4352711 10.63296,27.6826489 10.63296,27.9873896 L10.63296,31.5241748 C10.63296,31.8289156 10.38456,32.0762933 10.07856,32.0762933 M17.0955,32.0762933 L16.3503,32.0762933 C16.0443,32.0762933 15.7959,31.8289156 15.7959,31.5241748 L15.7959,27.9873896 C15.7959,27.6826489 16.0443,27.4352711 16.3503,27.4352711 L17.0955,27.4352711 C17.4015,27.4352711 17.6499,27.6826489 17.6499,27.9873896 L17.6499,31.5241748 C17.6499,31.8289156 17.4015,32.0762933 17.0955,32.0762933 M13.20138,33.1489807 C13.90698,33.1489807 14.53338,33.7172326 14.53338,34.4199289 L14.53338,35.0957363 C14.53338,35.4793511 14.22198,35.7894696 13.83678,35.7894696 L12.57858,35.7894696 C12.19518,35.7894696 11.88198,35.4793511 11.88198,35.0957363 L11.88198,34.4199289 C11.88198,33.7172326 12.49578,33.1489807 13.20138,33.1489807 M10.07856,13.7231926 L9.33336,13.7231926 C9.02736,13.7231926 8.77896,13.4758148 8.77896,13.1710741 L8.77896,9.63428889 C8.77896,9.32954815 9.02736,9.08217037 9.33336,9.08217037 L10.07856,9.08217037 C10.38456,9.08217037 10.63296,9.32954815 10.63296,9.63428889 L10.63296,13.1710741 C10.63296,13.4758148 10.38456,13.7231926 10.07856,13.7231926 M17.0955,13.7231926 L16.3503,13.7231926 C16.0443,13.7231926 15.7959,13.4758148 15.7959,13.1710741 L15.7959,9.63428889 C15.7959,9.32954815 16.0443,9.08217037 16.3503,9.08217037 L17.0955,9.08217037 C17.4015,9.08217037 17.6499,9.32954815 17.6499,9.63428889 L17.6499,13.1710741 C17.6499,13.4758148 17.4015,13.7231926 17.0955,13.7231926 Z M13.20138,14.79588 C13.90698,14.79588 14.53338,15.3641319 14.53338,16.0668281 L14.53338,16.7426356 C14.53338,17.1262504 14.22198,17.4363689 13.83678,17.4363689 L12.57858,17.4363689 C12.19518,17.4363689 11.88198,17.1262504 11.88198,16.7426356 L11.88198,16.0668281 C11.88198,15.3641319 12.49578,14.79588 13.20138,14.79588 Z" id="OUTLET"></path>
                    </g>
                </g>
            </g>
        </g>
    </g>
</svg>