<?xml version="1.0" encoding="UTF-8" standalone="no"?>
<svg width="21px" height="18px" viewBox="0 0 21 18" version="1.1" xmlns="http://www.w3.org/2000/svg" xmlns:xlink="http://www.w3.org/1999/xlink">
    <!-- Generator: Sketch 3.6.1 (26313) - http://www.bohemiancoding.com/sketch -->
    <title>Fill 2</title>
    <desc>Created with Sketch.</desc>
    <defs></defs>
    <g id="v2" stroke="none" stroke-width="1" fill="none" fill-rule="evenodd">
        <g id="Desktop-Copy" transform="translate(-706.000000, -3585.000000)" fill="#5EA9DD">
            <g id="Group-7" transform="translate(674.000000, 3583.000000)">
                <g id="Fill-1-+-Fill-2">
                    <path d="M53,4.51208067 C52.2283516,4.85380747 51.3972378,5.08432636 50.5254518,5.18799001 C51.4154701,4.65737743 52.0982008,3.81633274 52.4199313,2.8135057 C51.587415,3.30527933 50.66542,3.66265347 49.6842401,3.85517168 C48.8982863,3.02083299 47.7782601,2.5 46.5390225,2.5 C44.1604045,2.5 42.2308627,4.42182903 42.2308627,6.79212209 C42.2308627,7.12798113 42.2690104,7.45489883 42.3427812,7.76980161 C38.7619512,7.59097484 35.5870009,5.88206144 33.4619525,3.28544074 C33.0908544,3.91887872 32.8790789,4.65625976 32.8790789,5.443377 C32.8790789,6.93210993 33.6392269,8.24592791 34.7951567,9.01544189 C34.0894252,8.99308854 33.4249269,8.80001151 32.8440167,8.47812331 C32.8434557,8.49656482 32.8434557,8.51472691 32.8434557,8.53316842 C32.8434557,10.6111915 34.3286895,12.3455318 36.2997449,12.741186 C35.9384642,12.8384231 35.5572682,12.8912329 35.1645718,12.8912329 C34.8868794,12.8912329 34.6164799,12.8649677 34.3539343,12.8141138 C34.9023068,14.518836 36.4932881,15.7600056 38.3785112,15.7943739 C36.9039363,16.9452918 35.0464824,17.6320984 33.0277425,17.6320984 C32.6799257,17.6320984 32.3371579,17.6114216 32,17.571465 C33.9068214,18.7900018 36.1715576,19.5 38.6045921,19.5 C46.5292051,19.5 50.8626097,12.9602488 50.8626097,7.28892523 C50.8626097,7.10311303 50.8589632,6.91730083 50.8508288,6.73316514 C51.6926015,6.12934534 52.4230168,5.37268454 53,4.51208067" id="Fill-2"></path>
                </g>
            </g>
        </g>
    </g>
</svg>