<?xml version="1.0" encoding="UTF-8" standalone="no"?>
<svg width="31px" height="47px" viewBox="0 0 31 47" version="1.1" xmlns="http://www.w3.org/2000/svg" xmlns:xlink="http://www.w3.org/1999/xlink">
    <!-- Generator: Sketch 3.6.1 (26313) - http://www.bohemiancoding.com/sketch -->
    <title>UTENSILS</title>
    <desc>Created with Sketch.</desc>
    <defs>
        <linearGradient x1="50%" y1="0%" x2="50%" y2="100%" id="linearGradient-1">
            <stop stop-color="#248DF8" offset="0%"></stop>
            <stop stop-color="#1080F2" offset="100%"></stop>
        </linearGradient>
    </defs>
    <g id="v2" stroke="none" stroke-width="1" fill="none" fill-rule="evenodd">
        <g id="Desktop-Copy" transform="translate(-972.000000, -2084.000000)" fill="url(#linearGradient-1)">
            <g id="Group-14" transform="translate(899.000000, 2084.000000)">
                <g id="Page-1" transform="translate(72.000000, 0.000000)">
                    <g id="Group-3" transform="translate(0.411765, 0.103446)">
                        <path d="M30.6513059,13.5847385 C30.6513059,6.10781538 27.0042471,0.909046154 23.9717176,0.909046154 C20.9391882,0.909046154 17.2921294,6.10781538 17.2921294,13.5847385 C17.2921294,16.4721231 19.0609529,18.8425846 21.1707765,20.0167385 C21.6686,20.2936615 21.9421294,20.8567385 21.9147765,21.4327385 L20.8826588,43.0548923 C20.8826588,44.7662769 22.2521294,46.1545846 23.9443647,46.1545846 C25.6347765,46.1545846 27.0042471,44.7662769 27.0042471,43.0548923 L26.0268353,21.4290462 C25.9994824,20.8548923 26.2730118,20.2936615 26.7708353,20.0185846 C28.8824824,18.8444308 30.6513059,16.4739692 30.6513059,13.5847385 Z M7.03295294,0.742707692 C6.58436471,0.742707692 6.21601176,1.09901538 6.19595294,1.55316923 L5.70724706,12.4934769 C5.70724706,13.1304 5.19848235,13.6473231 4.56936471,13.6473231 C3.94024706,13.6473231 3.42965882,13.1304 3.42965882,12.4934769 C3.37312941,8.46701538 3.54089412,5.25655385 3.80712941,1.65470769 C3.8436,1.16178462 3.45883529,0.742707692 2.97195294,0.742707692 C2.5726,0.742707692 1.97630588,1.02701538 1.89971765,1.42393846 C1.53501176,3.27747692 0.5886,8.65163077 0.5886,14.2934769 C0.5886,16.7285538 1.95442353,19.0584 4.19554118,20.1531692 C4.72801176,20.4153231 5.02707059,21.0042462 4.99789412,21.6024 L3.97307059,43.0547077 C3.97307059,44.7660923 5.34436471,46.1544 7.03477647,46.1544 C8.72518824,46.1544 10.0946588,44.7660923 10.0946588,43.0547077 L9.12454118,21.5710154 C9.09718824,20.9784 9.38895294,20.3950154 9.91595294,20.1328615 C12.1315412,19.0288615 13.4809529,16.7137846 13.4809529,14.2934769 C13.4809529,8.65163077 12.5327176,3.27747692 12.1698353,1.42393846 C12.0914235,1.02701538 11.5097176,0.742707692 11.1103647,0.742707692 C10.6234824,0.742707692 10.2387176,1.16178462 10.2751882,1.65470769 C10.5414235,5.25655385 10.7091882,8.46701538 10.6526588,12.4934769 C10.6526588,13.1304 10.1420706,13.6473231 9.51295294,13.6473231 C8.88383529,13.6473231 8.37507059,13.1304 8.37507059,12.4934769 L7.88636471,1.55316923 C7.86630588,1.09901538 7.48154118,0.742707692 7.03295294,0.742707692 Z" id="UTENSILS"></path>
                    </g>
                </g>
            </g>
        </g>
    </g>
</svg>