<?xml version="1.0" encoding="UTF-8" standalone="no"?>
<svg width="59px" height="42px" viewBox="0 0 59 42" version="1.1" xmlns="http://www.w3.org/2000/svg" xmlns:xlink="http://www.w3.org/1999/xlink">
    <!-- Generator: Sketch 3.6.1 (26313) - http://www.bohemiancoding.com/sketch -->
    <title>WIFI</title>
    <desc>Created with Sketch.</desc>
    <defs>
        <linearGradient x1="50%" y1="0%" x2="50%" y2="100%" id="linearGradient-1">
            <stop stop-color="#248DF8" offset="0%"></stop>
            <stop stop-color="#1080F2" offset="100%"></stop>
        </linearGradient>
    </defs>
    <g id="v2" stroke="none" stroke-width="1" fill="none" fill-rule="evenodd">
        <g id="Desktop-Copy" transform="translate(-384.000000, -2087.000000)" fill="url(#linearGradient-1)">
            <g id="Group-11" transform="translate(321.000000, 2087.000000)">
                <g id="Page-1" transform="translate(63.000000, 0.000000)">
                    <g id="Group-3" transform="translate(0.048312, 0.063974)">
                        <path d="M34.6491255,33.875929 C31.4623899,31.4192706 26.6045904,32.1472572 24.1015806,34.1699692 C23.1501021,35.1137433 23.4369801,36.33733 24.4410528,37.3356438 L27.957698,40.8238142 C28.8470195,41.7059347 30.2909717,41.7059347 31.1802933,40.8238142 L34.8786278,37.1530544 C35.8205437,36.2211367 35.6986206,34.6845395 34.6491255,33.875929 Z M40.0419523,29.9063864 C40.8452105,30.7055118 42.2796001,30.6201453 43.0828583,29.8233912 C43.8956791,29.017152 44.0223835,27.5682926 43.2119534,26.7620534 C35.6790172,19.2901127 23.4627991,19.2901127 15.929863,26.7620534 C15.0835731,27.6204611 14.9831658,29.1167462 15.8390183,29.96804 C16.7163866,30.8359328 18.2296676,30.7813931 19.099864,29.9063864 C24.8828448,24.1702314 34.2589715,24.1702314 40.0419523,29.9063864 Z M50.2765612,22.6886482 C51.0630849,21.9084932 50.9555057,20.3078712 50.1737633,19.5206023 C38.7010371,8.14314392 20.2715212,8.30913435 8.79879501,19.688964 C7.96923969,20.5307726 7.83536332,22.0270578 8.67448125,22.8593812 C9.53033371,23.7083037 11.0483961,23.6181946 11.8970766,22.7621583 C21.6580979,13.0825449 37.4841966,13.0825449 47.2428272,22.7621583 C48.0484761,23.5636549 49.4709124,23.4877736 50.2765612,22.6886482 Z M57.635219,15.3893376 C58.419352,14.6115539 58.5173686,13.1389816 57.7380169,12.354084 C42.1820616,-3.07828344 16.960711,-3.07828344 1.40236499,12.354084 C0.558465766,13.2124917 0.455667844,14.7087768 1.31152031,15.5576993 C2.18888862,16.4279634 3.70216966,16.3710524 4.57236603,15.4960457 C18.378366,1.80183522 40.7620159,1.80183522 54.5680159,15.4960457 C55.3712741,16.2975424 56.8295702,16.188463 57.635219,15.3893376 Z" id="WIFI"></path>
                    </g>
                </g>
            </g>
        </g>
    </g>
</svg>